<svg width="32" height="20" viewBox="0 0 32 20" fill="none" xmlns="http://www.w3.org/2000/svg">
<path d="M20.325 2.13892H11.6729V17.8611H20.325V2.13892Z" fill="#FF5F00"/>
<path d="M12.2229 10C12.2229 6.80556 13.7062 3.97222 15.9859 2.13889C14.3104 0.805556 12.1955 0 9.88821 0C4.42223 0 0 4.47222 0 10C0 15.5278 4.42223 20 9.88821 20C12.1955 20 14.3104 19.1944 15.9859 17.8611C13.7062 16.0556 12.2229 13.1944 12.2229 10Z" fill="#EB001B"/>
<path d="M32.0006 10C32.0006 15.5278 27.5784 20 22.1124 20C19.8051 20 17.6902 19.1944 16.0146 17.8611C18.3219 16.0278 19.7777 13.1944 19.7777 10C19.7777 6.80556 18.2944 3.97222 16.0146 2.13889C17.6902 0.805556 19.8051 0 22.1124 0C27.5784 0 32.0006 4.5 32.0006 10Z" fill="#F79E1B"/>
</svg>
