<svg width="100" height="24" viewBox="0 0 100 24" fill="none" xmlns="http://www.w3.org/2000/svg">
<path d="M37.394 5.36719H31.86C31.6768 5.36707 31.4996 5.43127 31.3603 5.54821C31.2209 5.66515 31.1287 5.82715 31.1002 6.00501L28.862 19.9519C28.8517 20.0166 28.8558 20.0828 28.874 20.1458C28.8922 20.2088 28.9241 20.2672 28.9675 20.3169C29.0109 20.3666 29.0647 20.4065 29.1253 20.4339C29.1858 20.4612 29.2517 20.4753 29.3184 20.4752H31.9603C32.1436 20.4753 32.321 20.411 32.4603 20.2939C32.5996 20.1768 32.6918 20.0146 32.7201 19.8366L33.3238 16.0749C33.3521 15.897 33.4442 15.7349 33.5833 15.6179C33.7225 15.5008 33.8996 15.4364 34.0828 15.4363H35.8347C39.48 15.4363 41.5839 13.7026 42.1333 10.2669C42.3809 8.76385 42.1439 7.58285 41.4277 6.75575C40.6412 5.84754 39.2462 5.36719 37.394 5.36719ZM38.0324 10.461C37.7298 12.4126 36.2126 12.4126 34.7455 12.4126H33.9104L34.4963 8.76782C34.5134 8.66119 34.5688 8.56407 34.6523 8.49395C34.7358 8.42382 34.842 8.38529 34.9519 8.38529H35.3346C36.3339 8.38529 37.2766 8.38529 37.7638 8.94517C38.0543 9.27919 38.1433 9.77545 38.0324 10.461ZM53.936 10.3982H51.286C51.1761 10.3982 51.0699 10.4367 50.9864 10.5068C50.9029 10.5769 50.8476 10.6741 50.8304 10.7807L50.7131 11.5092L50.5278 11.2451C49.9541 10.4268 48.6747 10.1532 47.3979 10.1532C44.4694 10.1532 41.9683 12.3331 41.4811 15.3909C41.2279 16.9163 41.5879 18.3749 42.4683 19.392C43.2759 20.3273 44.4314 20.717 45.8062 20.717C48.1658 20.717 49.4742 19.2258 49.4742 19.2258L49.3561 19.9495C49.3456 20.0142 49.3494 20.0804 49.3674 20.1435C49.3854 20.2066 49.4171 20.2651 49.4604 20.315C49.5036 20.3649 49.5573 20.405 49.6178 20.4325C49.6783 20.46 49.7442 20.4743 49.8108 20.4744H52.1979C52.3812 20.4745 52.5586 20.4102 52.6979 20.2931C52.8372 20.176 52.9294 20.0138 52.9577 19.8358L54.39 10.9215C54.4005 10.8569 54.3967 10.7909 54.3787 10.7279C54.3608 10.6649 54.3291 10.6066 54.2859 10.5568C54.2428 10.507 54.1891 10.4671 54.1287 10.4397C54.0683 10.4123 54.0026 10.3981 53.936 10.3982ZM50.2421 15.4673C49.9864 16.9553 48.7848 17.9541 47.2522 17.9541C46.4827 17.9541 45.8677 17.7116 45.4728 17.2519C45.0812 16.7954 44.9323 16.1457 45.0569 15.422C45.2956 13.9467 46.5175 12.9152 48.0266 12.9152C48.7791 12.9152 49.3909 13.161 49.7938 13.6246C50.1976 14.093 50.3578 14.7468 50.2421 15.4673ZM68.0498 10.3982H65.3867C65.2612 10.3983 65.1375 10.4287 65.0265 10.4864C64.9156 10.5442 64.8206 10.6278 64.7499 10.7298L61.077 16.0471L59.5202 10.9374C59.4724 10.7815 59.3748 10.6449 59.2419 10.5478C59.109 10.4507 58.9478 10.3982 58.7822 10.3982H56.1653C56.0919 10.398 56.0194 10.415 55.954 10.4479C55.8886 10.4808 55.8322 10.5285 55.7894 10.5872C55.7465 10.6459 55.7186 10.7137 55.7078 10.7851C55.6971 10.8566 55.7038 10.9295 55.7276 10.9978L58.6608 19.458L55.9032 23.2841C55.8541 23.352 55.8251 23.4318 55.8191 23.5148C55.8132 23.5977 55.8306 23.6807 55.8695 23.7547C55.9083 23.8286 55.9671 23.8906 56.0394 23.9338C56.1117 23.9771 56.1948 23.9999 56.2794 23.9999H58.9392C59.0634 24.0001 59.1858 23.9706 59.2958 23.9141C59.4059 23.8576 59.5004 23.7757 59.5712 23.6754L68.4285 11.1099C68.4765 11.042 68.5046 10.9624 68.5099 10.8798C68.5151 10.7972 68.4973 10.7147 68.4583 10.6414C68.4193 10.5681 68.3605 10.5066 68.2885 10.4638C68.2165 10.4209 68.1339 10.3982 68.0498 10.3982Z" fill="#022273"/>
<path d="M76.8619 5.36798H71.3271C71.144 5.36806 70.967 5.43234 70.8279 5.54926C70.6887 5.66619 70.5966 5.82808 70.5681 6.0058L68.3299 19.9527C68.3195 20.0173 68.3234 20.0834 68.3415 20.1463C68.3596 20.2093 68.3913 20.2676 68.4345 20.3174C68.4778 20.3671 68.5314 20.407 68.5919 20.4344C68.6523 20.4618 68.7181 20.476 68.7846 20.476H71.6249C71.753 20.4758 71.8769 20.4307 71.9742 20.3488C72.0715 20.2668 72.1358 20.1535 72.1557 20.029L72.7909 16.0757C72.8192 15.8978 72.9113 15.7357 73.0504 15.6187C73.1896 15.5016 73.3667 15.4372 73.5499 15.4371H75.301C78.9471 15.4371 81.0502 13.7034 81.6004 10.2677C81.8489 8.76464 81.6101 7.58364 80.894 6.75655C80.1083 5.84833 78.7141 5.36798 76.8619 5.36798ZM77.5003 10.4618C77.1985 12.4134 75.6813 12.4134 74.2134 12.4134H73.3792L73.9658 8.76862C73.9826 8.66198 74.0377 8.56478 74.1212 8.49462C74.2046 8.42445 74.3108 8.38595 74.4206 8.38609H74.8033C75.8019 8.38609 76.7454 8.38609 77.2325 8.94597C77.523 9.27998 77.6112 9.77624 77.5003 10.4618ZM93.4031 10.3989H90.7547C90.6449 10.3987 90.5385 10.4371 90.4551 10.5073C90.3717 10.5775 90.3166 10.6748 90.2999 10.7815L90.1826 11.51L89.9965 11.2459C89.4228 10.4276 88.1443 10.154 86.8674 10.154C83.939 10.154 81.4386 12.3339 80.9515 15.3917C80.699 16.9171 81.0575 18.3756 81.9379 19.3928C82.747 20.3281 83.9009 20.7178 85.2757 20.7178C87.6353 20.7178 88.9437 19.2266 88.9437 19.2266L88.8256 19.9503C88.8151 20.0151 88.819 20.0815 88.8371 20.1447C88.8552 20.2079 88.887 20.2665 88.9304 20.3164C88.9738 20.3663 89.0277 20.4064 89.0884 20.4338C89.1491 20.4612 89.2152 20.4753 89.282 20.4752H91.6683C91.8514 20.4751 92.0286 20.4107 92.1677 20.2936C92.3069 20.1765 92.3989 20.0145 92.4273 19.8366L93.8603 10.9222C93.8705 10.8575 93.8663 10.7913 93.8479 10.7283C93.8296 10.6653 93.7977 10.6069 93.7542 10.5572C93.7108 10.5075 93.6569 10.4676 93.5963 10.4403C93.5357 10.413 93.4698 10.3989 93.4031 10.3989ZM89.7092 15.4681C89.4552 16.9561 88.2519 17.9549 86.7193 17.9549C85.9514 17.9549 85.3348 17.7124 84.9399 17.2527C84.5483 16.7962 84.401 16.1465 84.524 15.4228C84.7643 13.9475 85.9846 12.916 87.4937 12.916C88.2462 12.916 88.858 13.1618 89.261 13.6254C89.6663 14.0938 89.8266 14.7476 89.7092 15.4681ZM96.5274 5.75051L94.256 19.9527C94.2456 20.0173 94.2496 20.0834 94.2676 20.1463C94.2857 20.2093 94.3174 20.2676 94.3607 20.3174C94.4039 20.3671 94.4576 20.407 94.518 20.4344C94.5785 20.4618 94.6442 20.476 94.7108 20.476H96.9943C97.3738 20.476 97.6958 20.2056 97.7541 19.8374L99.9939 5.89128C100.004 5.82663 100 5.76054 99.9823 5.69755C99.9642 5.63455 99.9325 5.57615 99.8893 5.52635C99.8461 5.47655 99.7924 5.43654 99.732 5.40906C99.6715 5.38159 99.6057 5.3673 99.5392 5.36719H96.9821C96.8724 5.36757 96.7663 5.40635 96.683 5.47659C96.5997 5.54683 96.5445 5.64394 96.5274 5.75051Z" fill="#167FC4"/>
<path d="M5.87838 23.1858L6.30158 20.5439L5.35889 20.5224H0.857422L3.98571 1.02759C3.99502 0.968027 4.02581 0.913734 4.07245 0.874611C4.11909 0.835487 4.17848 0.814139 4.23979 0.814457H11.8299C14.3497 0.814457 16.0886 1.3298 16.9965 2.34697C17.4221 2.82414 17.6932 3.32278 17.8243 3.87153C17.9619 4.44731 17.9643 5.13523 17.83 5.97426L17.8203 6.0355V6.57311L18.2459 6.8101C18.5708 6.9719 18.8629 7.19076 19.1077 7.45587C19.4718 7.86385 19.7073 8.38238 19.8068 8.99713C19.9096 9.62938 19.8756 10.3817 19.7073 11.2335C19.5131 12.2133 19.1991 13.0666 18.7751 13.7649C18.401 14.3904 17.898 14.9322 17.2983 15.3554C16.7352 15.7483 16.066 16.0465 15.3094 16.2374C14.5763 16.4251 13.7404 16.5197 12.8236 16.5197H12.2329C11.8105 16.5197 11.4002 16.6692 11.0782 16.9373C10.7566 17.2081 10.5432 17.5824 10.4761 17.9934L10.4316 18.2312L9.68396 22.8876L9.64997 23.0586C9.64107 23.1126 9.6257 23.1397 9.60304 23.158C9.58109 23.1756 9.55371 23.1854 9.52536 23.1858H5.87838Z" fill="#022273"/>
<path d="M18.6483 6.09814C18.6257 6.2405 18.5998 6.38604 18.5707 6.53555C17.5697 11.5864 14.1453 13.3313 9.77164 13.3313H7.54478C7.00991 13.3313 6.5592 13.713 6.47585 14.2315L5.33572 21.3382L5.01286 23.3526C4.99999 23.4325 5.00491 23.5142 5.02725 23.5921C5.04959 23.67 5.08884 23.7421 5.14229 23.8037C5.19574 23.8652 5.26212 23.9146 5.33686 23.9485C5.4116 23.9824 5.49292 23.9999 5.57524 24H9.52484C9.99255 24 10.3899 23.666 10.4635 23.2127L10.5023 23.0154L11.246 18.3773L11.2937 18.1228C11.3665 17.6679 11.7647 17.3339 12.2324 17.3339H12.8231C16.6497 17.3339 19.6453 15.807 20.5208 11.3884C20.8865 9.54252 20.6972 8.00126 19.7294 6.91729C19.4227 6.58197 19.0563 6.30438 18.6483 6.09814Z" fill="#167FC4"/>
<path d="M17.6 5.68689C17.2804 5.59602 16.9553 5.5251 16.6266 5.47454C15.9771 5.37644 15.3206 5.32937 14.6635 5.33378H8.71442C8.48801 5.33361 8.26902 5.41305 8.09701 5.55774C7.92501 5.70243 7.81135 5.90283 7.77658 6.1227L6.51102 14.0008L6.47461 14.2306C6.51404 13.9798 6.64349 13.7512 6.83955 13.5861C7.03561 13.4209 7.28533 13.3302 7.54354 13.3304H9.7704C14.144 13.3304 17.5685 11.5847 18.5694 6.53466C18.5994 6.38514 18.6244 6.23961 18.6471 6.09725C18.383 5.96112 18.1077 5.847 17.8242 5.75608C17.7498 5.73184 17.6751 5.70877 17.6 5.68689Z" fill="#022273"/>
<path d="M7.77938 6.12289C7.81386 5.90295 7.92746 5.70246 8.09955 5.55785C8.27164 5.41323 8.4908 5.33407 8.71722 5.33477H14.6663C15.3711 5.33477 16.029 5.3801 16.6294 5.47553C17.0357 5.53829 17.4364 5.63215 17.8278 5.75627C18.1231 5.8525 18.3974 5.96622 18.6507 6.09744C18.9485 4.23091 18.6483 2.96005 17.6214 1.80927C16.4894 0.542384 14.4462 0 11.8318 0H4.24165C3.70759 0 3.25202 0.381736 3.16948 0.901057L0.00801874 20.5963C-0.00670684 20.6877 -0.00110426 20.7812 0.0244411 20.8703C0.0499864 20.9594 0.0948683 21.042 0.155999 21.1125C0.21713 21.1829 0.29306 21.2395 0.378565 21.2783C0.464069 21.3172 0.55712 21.3373 0.651317 21.3375H5.33728L6.51382 14.001L7.77938 6.12289Z" fill="#022273"/>
</svg>
