<svg width="48" height="16" viewBox="0 0 48 16" fill="none" xmlns="http://www.w3.org/2000/svg">
<g clip-path="url(#clip0_305_746)">
<path d="M20.7995 15.7692H16.9111L19.3432 0.280762H23.2313L20.7995 15.7692Z" fill="#00579F"/>
<path d="M34.8954 0.659404C34.1284 0.346018 32.912 0 31.4079 0C27.568 0 24.864 2.10895 24.8474 5.12412C24.8155 7.3487 26.7834 8.58429 28.2552 9.32604C29.7596 10.084 30.2709 10.5787 30.2709 11.2543C30.2556 12.2919 29.0553 12.7702 27.9358 12.7702C26.3834 12.7702 25.5516 12.5236 24.2876 11.9464L23.7756 11.6989L23.2314 15.1757C24.1434 15.6036 25.8236 15.9834 27.568 16C31.6479 16 34.3041 13.9237 34.3355 10.7105C34.3511 8.94739 33.3119 7.59639 31.0717 6.49242C29.7117 5.78374 28.8789 5.30589 28.8789 4.58079C28.8948 3.9216 29.5833 3.24643 31.1185 3.24643C32.3825 3.21336 33.3113 3.52631 34.0149 3.83948L34.3666 4.00394L34.8954 0.659404Z" fill="#00579F"/>
<path d="M40.0637 10.2822C40.384 9.3924 41.6161 5.94865 41.6161 5.94865C41.6 5.98172 41.9357 5.04244 42.1277 4.46582L42.3995 5.80039C42.3995 5.80039 43.1358 9.50781 43.2957 10.2822C42.688 10.2822 40.8318 10.2822 40.0637 10.2822ZM44.8634 0.280762H41.8558C40.9283 0.280762 40.2236 0.560641 39.8235 1.56584L34.0479 15.769H38.1278C38.1278 15.769 38.7995 13.8573 38.9438 13.4456C39.3914 13.4456 43.3603 13.4456 43.9361 13.4456C44.0478 13.9894 44.4001 15.769 44.4001 15.769H48.0003L44.8634 0.280762Z" fill="#00579F"/>
<path d="M13.6634 0.280762L9.85548 10.8424L9.43936 8.70036C8.73535 6.22875 6.52742 3.5434 4.06348 2.20816L7.55143 15.7528H11.6632L17.775 0.280762H13.6634Z" fill="#00579F"/>
<path d="M6.31995 0.280762H0.0640009L0 0.59371C4.88003 1.87901 8.11199 4.97718 9.43985 8.70102L8.07988 1.58271C7.85598 0.593491 7.16792 0.313392 6.31995 0.280762Z" fill="#F4A622"/>
</g>
<defs>
<clipPath id="clip0_305_746">
<rect width="48" height="16" fill="white"/>
</clipPath>
</defs>
</svg>
